<?xml version="1.0" standalone="no"?>
<!DOCTYPE svg PUBLIC "-//W3C//DTD SVG 20010904//EN"
 "http://www.w3.org/TR/2001/REC-SVG-20010904/DTD/svg10.dtd">
<svg version="1.0" xmlns="http://www.w3.org/2000/svg"
 width="700.000000pt" height="700.000000pt" viewBox="0 0 700.000000 700.000000"
 preserveAspectRatio="xMidYMid meet">
<metadata>
Created by potrace 1.14, written by Peter Selinger 2001-2017
</metadata>
<g transform="translate(0.000000,700.000000) scale(0.100000,-0.100000)"
fill="#000000" stroke="none">
<path d="M1616 6925 c12 -444 141 -899 362 -1275 71 -120 199 -305 247 -356 5
-6 32 -36 58 -67 204 -238 460 -439 775 -612 195 -107 524 -220 752 -260 188
-33 246 -38 535 -50 77 -3 167 -10 200 -15 33 -6 75 -13 94 -16 19 -3 79 -19
134 -35 498 -148 906 -546 1068 -1041 154 -471 84 -987 -189 -1398 -205 -309
-523 -546 -872 -651 -52 -15 -108 -30 -125 -33 -16 -3 -55 -10 -85 -16 -207
-36 -392 -29 -657 26 -62 13 -218 70 -307 113 -494 239 -828 702 -902 1251 -1
14 -5 84 -9 155 -9 204 -15 317 -20 350 -36 257 -67 393 -130 575 -324 930
-1125 1611 -2088 1775 -134 22 -152 24 -409 39 -27 2 -48 -1 -48 -5 0 -5 12
-9 28 -10 96 -2 198 -30 310 -85 478 -237 950 -1006 1187 -1934 14 -57 65
-326 70 -375 4 -33 9 -76 11 -95 3 -19 7 -102 9 -185 3 -141 12 -283 20 -332
2 -12 9 -57 15 -100 17 -114 55 -272 96 -398 136 -415 347 -759 659 -1070 218
-219 397 -351 660 -491 187 -98 493 -210 658 -239 15 -3 58 -12 95 -20 69 -14
118 -21 267 -35 83 -8 451 -5 495 4 14 2 52 8 85 11 93 11 148 22 315 60 63
15 270 83 335 110 353 149 628 331 884 585 317 315 562 719 684 1130 39 133
66 248 83 365 3 17 6 39 9 50 26 123 26 605 0 730 -2 11 -6 38 -9 60 -21 165
-105 459 -184 640 -93 212 -259 485 -397 650 -425 509 -1020 850 -1650 945
-44 7 -87 13 -95 15 -38 7 -180 16 -335 21 -93 2 -181 6 -195 9 -14 2 -52 7
-85 11 -33 3 -69 8 -80 10 -11 3 -36 7 -55 9 -19 3 -46 8 -60 11 -14 3 -36 8
-50 10 -14 3 -41 9 -60 14 -19 5 -46 11 -60 14 -137 26 -653 197 -684 227 -6
5 -17 9 -25 9 -20 0 -408 192 -464 230 -25 16 -48 30 -51 30 -12 0 -209 136
-291 200 -106 83 -289 268 -348 353 -99 143 -163 312 -166 440 -1 20 -5 37 -9
37 -4 0 -7 -34 -6 -75z"/>
</g>
</svg>
