<?xml version="1.0" standalone="no"?>
<!DOCTYPE svg PUBLIC "-//W3C//DTD SVG 20010904//EN"
 "http://www.w3.org/TR/2001/REC-SVG-20010904/DTD/svg10.dtd">
<svg version="1.0" xmlns="http://www.w3.org/2000/svg"
 width="400.000000pt" height="400.000000pt" viewBox="0 0 400.000000 400.000000"
 preserveAspectRatio="xMidYMid meet">
<metadata>
Created by potrace 1.11, written by Peter Selinger 2001-2013
</metadata>
<g transform="translate(0.000000,400.000000) scale(0.100000,-0.100000)"
fill="#000000" stroke="none">
<path d="M2066 3490 c-44 -149 -41 -353 8 -483 l23 -61 -77 -76 c-89 -86 -135
-170 -152 -277 -7 -39 -17 -67 -25 -70 -21 -8 -141 114 -237 242 -47 63 -106
128 -137 152 -215 166 -513 148 -703 -43 -149 -148 -192 -340 -126 -563 56
-187 62 -227 70 -456 7 -177 12 -234 29 -293 64 -222 210 -396 416 -500 291
-145 650 -92 890 133 33 31 66 61 72 67 9 7 35 -10 94 -66 172 -159 392 -228
644 -202 115 12 277 80 379 159 104 82 220 259 260 397 70 242 10 523 -151
715 -32 39 -108 108 -168 155 -137 106 -235 202 -310 305 -76 104 -136 167
-210 218 l-60 42 121 12 c108 11 200 34 244 63 42 27 -129 225 -247 288 -105
55 -169 73 -283 79 -77 4 -123 1 -173 -11 -103 -24 -101 -26 -93 42 l7 59 -39
11 c-22 7 -42 12 -45 12 -4 0 -13 -22 -21 -50z m166 -303 c42 -41 104 -88 137
-106 34 -18 61 -38 61 -45 0 -9 -24 -15 -78 -20 -42 -3 -93 -10 -111 -16 -42
-12 -49 -8 -73 46 -20 47 -38 214 -22 214 5 0 44 -33 86 -73z m278 -369 c74
-32 119 -69 168 -137 109 -157 226 -278 376 -390 149 -111 216 -196 263 -334
126 -371 -142 -767 -538 -794 -239 -16 -478 121 -578 332 -55 115 -63 157 -66
340 -4 197 -16 296 -50 420 -57 206 -58 209 -51 274 21 229 268 379 476 289z"/>
<path d="M2660 2179 c-211 -41 -367 -263 -333 -472 24 -139 109 -254 235 -316
75 -37 162 -49 264 -36 l58 7 -36 20 c-40 23 -82 91 -93 150 -6 31 -4 36 12
35 16 -2 18 5 14 66 l-3 68 48 -31 c56 -35 68 -37 59 -10 -9 28 14 26 60 -6
75 -51 105 -109 85 -170 -7 -19 -10 -37 -7 -40 10 -10 101 142 119 200 31 97
21 215 -26 311 -57 116 -146 184 -283 220 -63 16 -105 17 -173 4z"/>
</g>
</svg>
